<svg xmlns="http://www.w3.org/2000/svg" xmlns:xlink="http://www.w3.org/1999/xlink" width="1920" zoomAndPan="magnify" viewBox="0 0 1440 809.999993" height="1080" preserveAspectRatio="xMidYMid meet" version="1.0"><defs><clipPath id="5c55688519"><path d="M 0.4375 497.808594 L 106.109375 497.808594 L 106.109375 606.011719 L 0.4375 606.011719 Z M 0.4375 497.808594 " clip-rule="nonzero"/></clipPath><clipPath id="c1df83eee3"><path d="M 181.636719 651.617188 L 279.085938 651.617188 L 279.085938 749 L 181.636719 749 Z M 181.636719 651.617188 " clip-rule="nonzero"/></clipPath><clipPath id="3dbfc2c636"><path d="M 208 669 L 253 669 L 253 749.0625 L 208 749.0625 Z M 208 669 " clip-rule="nonzero"/></clipPath><clipPath id="d036993a2a"><path d="M 792.707031 2.085938 L 1210.332031 2.085938 L 1210.332031 591.824219 L 792.707031 591.824219 Z M 792.707031 2.085938 " clip-rule="nonzero"/></clipPath><clipPath id="5ba6194a3f"><rect x="0" width="1211" y="0" height="750"/></clipPath></defs><g transform="matrix(1, 0, 0, 1, 114, 29)"><g clip-path="url(#5ba6194a3f)"><g clip-path="url(#5c55688519)"><path fill="#000000" d="M 77.816406 600.410156 C 68.4375 604.605469 60.316406 606.011719 49.214844 606.011719 C 23.261719 606.011719 0.449219 587.515625 0.449219 557.039062 C 0.449219 525.335938 23.574219 497.808594 58.90625 497.808594 C 86.40625 497.808594 106.101562 516.613281 106.101562 542.738281 C 106.101562 565.429688 93.292969 579.730469 76.402344 579.730469 C 69.066406 579.730469 63.75 576.003906 62.964844 567.75 L 62.652344 567.75 C 57.804688 575.667969 50.761719 579.730469 42.484375 579.730469 C 32.324219 579.730469 24.988281 572.277344 24.988281 559.515625 C 24.988281 540.554688 39.054688 523.308594 61.550781 523.308594 C 68.4375 523.308594 76.246094 525.027344 80.148438 527.191406 L 75.480469 555.945312 C 73.910156 565.117188 75.011719 569.308594 79.386719 569.464844 C 86.113281 569.621094 94.550781 561.078125 94.550781 543.1875 C 94.550781 522.972656 81.425781 507.265625 57.199219 507.265625 C 33.289062 507.265625 12.335938 525.917969 12.335938 555.613281 C 12.335938 581.582031 29.070312 596.351562 52.355469 596.351562 C 60.316406 596.351562 68.773438 594.632812 75.011719 591.375 Z M 63.90625 536.203125 C 62.652344 535.890625 61.101562 535.578125 59.0625 535.578125 C 48.742188 535.578125 40.625 545.683594 40.625 557.640625 C 40.625 563.554688 43.269531 567.28125 48.429688 567.28125 C 54.214844 567.28125 60.316406 559.984375 61.710938 550.949219 Z M 63.90625 536.203125 " fill-opacity="1" fill-rule="nonzero"/></g><g clip-path="url(#c1df83eee3)"><path fill="#0866ff" d="M 279.097656 700.347656 C 279.097656 673.433594 257.28125 651.617188 230.371094 651.617188 C 203.457031 651.617188 181.636719 673.433594 181.636719 700.347656 C 181.636719 723.203125 197.371094 742.378906 218.597656 747.644531 L 218.597656 715.242188 L 208.546875 715.242188 L 208.546875 700.347656 L 218.597656 700.347656 L 218.597656 693.933594 C 218.597656 677.347656 226.101562 669.660156 242.382812 669.660156 C 245.472656 669.660156 250.800781 670.261719 252.976562 670.871094 L 252.976562 684.367188 C 251.828125 684.246094 249.828125 684.183594 247.347656 684.183594 C 239.359375 684.183594 236.269531 687.210938 236.269531 695.078125 L 236.269531 700.34375 L 252.1875 700.34375 L 249.453125 715.238281 L 236.269531 715.238281 L 236.269531 748.71875 C 260.398438 745.804688 279.097656 725.257812 279.097656 700.34375 Z M 279.097656 700.347656 " fill-opacity="1" fill-rule="nonzero"/></g><g clip-path="url(#3dbfc2c636)"><path fill="#ffffff" d="M 249.457031 715.238281 L 252.191406 700.34375 L 236.273438 700.34375 L 236.273438 695.078125 C 236.273438 687.210938 239.363281 684.183594 247.351562 684.183594 C 249.832031 684.183594 251.832031 684.246094 252.980469 684.367188 L 252.980469 670.871094 C 250.804688 670.265625 245.476562 669.660156 242.390625 669.660156 C 226.105469 669.660156 218.601562 677.347656 218.601562 693.933594 L 218.601562 700.347656 L 208.550781 700.347656 L 208.550781 715.242188 L 218.601562 715.242188 L 218.601562 747.644531 C 222.371094 748.582031 226.3125 749.082031 230.375 749.082031 C 232.375 749.082031 234.339844 748.957031 236.277344 748.722656 L 236.277344 715.242188 L 249.460938 715.242188 Z M 249.457031 715.238281 " fill-opacity="1" fill-rule="nonzero"/></g><g clip-path="url(#d036993a2a)"><path fill="#737373" d="M 1093.410156 455.242188 C 1055.257812 510.105469 1016.671875 552.695312 1001.46875 568.859375 C 986.269531 552.695312 947.683594 510.105469 909.53125 455.242188 C 864.972656 391.152344 811.84375 296.71875 811.84375 210.789062 C 811.84375 106.234375 896.910156 21.164062 1001.46875 21.164062 C 1106.03125 21.164062 1191.09375 106.234375 1191.09375 210.789062 C 1191.09375 296.71875 1137.96875 391.152344 1093.410156 455.242188 Z M 1001.46875 2.148438 C 886.425781 2.148438 792.832031 95.75 792.832031 210.789062 C 792.832031 283.800781 826.90625 369.789062 894.097656 466.359375 C 943.78125 537.75 994.222656 588.789062 994.722656 589.296875 C 996.507812 591.097656 998.9375 592.105469 1001.46875 592.105469 C 1004 592.105469 1006.433594 591.097656 1008.21875 589.296875 C 1008.71875 588.789062 1059.15625 537.75 1108.839844 466.359375 C 1176.035156 369.789062 1210.109375 283.800781 1210.109375 210.789062 C 1210.109375 95.75 1116.515625 2.148438 1001.46875 2.148438 " fill-opacity="1" fill-rule="nonzero"/></g><path fill="#737373" d="M 1002.515625 296.613281 C 958.367188 296.613281 922.449219 260.695312 922.449219 216.546875 C 922.449219 172.394531 958.367188 136.476562 1002.515625 136.476562 C 1046.667969 136.476562 1082.585938 172.394531 1082.585938 216.546875 C 1082.585938 260.695312 1046.667969 296.613281 1002.515625 296.613281 Z M 1002.515625 117.460938 C 947.886719 117.460938 903.433594 161.910156 903.433594 216.546875 C 903.433594 271.179688 947.886719 315.628906 1002.515625 315.628906 C 1057.152344 315.628906 1101.597656 271.179688 1101.597656 216.546875 C 1101.597656 161.910156 1057.152344 117.460938 1002.515625 117.460938 " fill-opacity="1" fill-rule="nonzero"/></g></g></svg>